# xmcd
#
# Track frame offsets:
#	150
#	20706
#	34068
#	49588
#	67172
#	85670
#	112725
#	135207
#	147674
#	161019
#	187640
#	211503
#	225239
#
# Disc length: 3269 seconds
#
# Revision: 1
# Processed by: cddbd v1.4PL0 Copyright (c) Steve Scherf et al.
# Submitted via: EasyCDDAExtractor 6.0.0.1
#
DISCID=9c0cc30d
DTITLE=Celtic Harp Orchestra - Got the Magic
DYEAR=1900
DGENRE=
TTITLE0=An Alarc'h
TTITLE1=Morrison Jig
TTITLE2=With this Love
TTITLE3=Brian Boru's March
TTITLE4=Suil a Ruin
TTITLE5=The Shrine
TTITLE6=Children of Llyr
TTITLE7=Miss McDermot
TTITLE8=Me, you and the Bathroom
TTITLE9=Mon
TTITLE10=Let it Wait
TTITLE11=Morrison Jig alt take
TTITLE12=She once Smiled
EXTD=
EXTT0=
EXTT1=
EXTT2=
EXTT3=
EXTT4=
EXTT5=
EXTT6=
EXTT7=
EXTT8=
EXTT9=
EXTT10=
EXTT11=
EXTT12=
PLAYORDER=
